<svg width="24" height="24" viewBox="0 0 24 24" fill="none" xmlns="http://www.w3.org/2000/svg">
<path d="M3.15 0C2.31457 0 1.51335 0.331874 0.922614 0.922614C0.331874 1.51335 0 2.31457 0 3.15V18.45C0 20.19 1.41 21.6 3.15 21.6H10.8264C10.5264 21.132 10.275 20.6292 10.08 20.1H3.15C2.71239 20.1 2.29271 19.9262 1.98327 19.6167C1.67384 19.3073 1.5 18.8876 1.5 18.45V3.15C1.5 2.71239 1.67384 2.29271 1.98327 1.98327C2.29271 1.67384 2.71239 1.5 3.15 1.5H18.45C18.8876 1.5 19.3073 1.67384 19.6167 1.98327C19.9262 2.29271 20.1 2.71239 20.1 3.15V10.08C20.6292 10.275 21.132 10.5264 21.6 10.8264V3.15C21.6 1.41 20.19 0 18.45 0H3.15ZM5.1 6.6C4.38392 6.6 3.69716 6.88446 3.19081 7.39081C2.68446 7.89716 2.4 8.58392 2.4 9.3C2.4 10.0161 2.68446 10.7028 3.19081 11.2092C3.69716 11.7155 4.38392 12 5.1 12C5.81608 12 6.50284 11.7155 7.00919 11.2092C7.51554 10.7028 7.8 10.0161 7.8 9.3C7.8 8.58392 7.51554 7.89716 7.00919 7.39081C6.50284 6.88446 5.81608 6.6 5.1 6.6V6.6ZM3.9 9.3C3.9 8.98174 4.02643 8.67652 4.25147 8.45147C4.47652 8.22643 4.78174 8.1 5.1 8.1C5.41826 8.1 5.72348 8.22643 5.94853 8.45147C6.17357 8.67652 6.3 8.98174 6.3 9.3C6.3 9.61826 6.17357 9.92348 5.94853 10.1485C5.72348 10.3736 5.41826 10.5 5.1 10.5C4.78174 10.5 4.47652 10.3736 4.25147 10.1485C4.02643 9.92348 3.9 9.61826 3.9 9.3ZM2.4 16.5C2.4 15.7839 2.68446 15.0972 3.19081 14.5908C3.69716 14.0845 4.38392 13.8 5.1 13.8C5.81608 13.8 6.50284 14.0845 7.00919 14.5908C7.51554 15.0972 7.8 15.7839 7.8 16.5C7.8 17.2161 7.51554 17.9028 7.00919 18.4092C6.50284 18.9155 5.81608 19.2 5.1 19.2C4.38392 19.2 3.69716 18.9155 3.19081 18.4092C2.68446 17.9028 2.4 17.2161 2.4 16.5V16.5ZM5.1 15.3C4.78174 15.3 4.47652 15.4264 4.25147 15.6515C4.02643 15.8765 3.9 16.1817 3.9 16.5C3.9 16.8183 4.02643 17.1235 4.25147 17.3485C4.47652 17.5736 4.78174 17.7 5.1 17.7C5.41826 17.7 5.72348 17.5736 5.94853 17.3485C6.17357 17.1235 6.3 16.8183 6.3 16.5C6.3 16.1817 6.17357 15.8765 5.94853 15.6515C5.72348 15.4264 5.41826 15.3 5.1 15.3ZM9.7506 7.8C9.55169 7.8 9.36092 7.87902 9.22027 8.01967C9.07962 8.16032 9.0006 8.35109 9.0006 8.55C9.0006 8.74891 9.07962 8.93968 9.22027 9.08033C9.36092 9.22098 9.55169 9.3 9.7506 9.3H18.45C18.5485 9.3 18.646 9.2806 18.737 9.24291C18.828 9.20522 18.9107 9.14997 18.9803 9.08033C19.05 9.01069 19.1052 8.92801 19.1429 8.83701C19.1806 8.74602 19.2 8.64849 19.2 8.55C19.2 8.45151 19.1806 8.35398 19.1429 8.26299C19.1052 8.17199 19.05 8.08931 18.9803 8.01967C18.9107 7.95003 18.828 7.89478 18.737 7.85709C18.646 7.8194 18.5485 7.8 18.45 7.8H9.7506ZM17.4 24C21.045 24 24 21.045 24 17.4C24 13.755 21.045 10.8 17.4 10.8C13.755 10.8 10.8 13.755 10.8 17.4C10.8 21.045 13.755 24 17.4 24ZM17.4 12.6C17.5591 12.6 17.7117 12.6632 17.8243 12.7757C17.9368 12.8883 18 13.0409 18 13.2V16.8H21.6C21.7591 16.8 21.9117 16.8632 22.0243 16.9757C22.1368 17.0883 22.2 17.2409 22.2 17.4C22.2 17.5591 22.1368 17.7117 22.0243 17.8243C21.9117 17.9368 21.7591 18 21.6 18H18V21.6C18 21.7591 17.9368 21.9117 17.8243 22.0243C17.7117 22.1368 17.5591 22.2 17.4 22.2C17.2409 22.2 17.0883 22.1368 16.9757 22.0243C16.8632 21.9117 16.8 21.7591 16.8 21.6V18H13.2C13.0409 18 12.8883 17.9368 12.7757 17.8243C12.6632 17.7117 12.6 17.5591 12.6 17.4C12.6 17.2409 12.6632 17.0883 12.7757 16.9757C12.8883 16.8632 13.0409 16.8 13.2 16.8H16.8V13.2C16.8 13.0409 16.8632 12.8883 16.9757 12.7757C17.0883 12.6632 17.2409 12.6 17.4 12.6ZM3.15 3C2.95109 3 2.76032 3.07902 2.61967 3.21967C2.47902 3.36032 2.4 3.55109 2.4 3.75C2.4 3.94891 2.47902 4.13968 2.61967 4.28033C2.76032 4.42098 2.95109 4.5 3.15 4.5H18.45C18.6489 4.5 18.8397 4.42098 18.9803 4.28033C19.121 4.13968 19.2 3.94891 19.2 3.75C19.2 3.55109 19.121 3.36032 18.9803 3.21967C18.8397 3.07902 18.6489 3 18.45 3H3.15Z" fill="#606060"/>
</svg>
